<svg width="600" height="240" viewBox="0 0 600 240" fill="none" xmlns="http://www.w3.org/2000/svg">
<path d="M582.222 80.5566V131.279L553.167 80.5566H530.111V159.14H547.917V107.084C550.917 112.307 577.778 159.14 577.778 159.14H600V80.5566H582.222Z" fill="#005A8C"/>
<path d="M56.25 80.5566C56.25 80.5566 42.0834 124.057 40.6111 128.612C39.1111 124.029 25 80.5566 25 80.5566H0V159.168H17.3889V105.473C20.1667 114.751 33.6667 159.14 33.6667 159.14H46.8611C46.8611 159.14 61.1112 114.307 63.8889 105.279V159.14H81.3612V80.5566H56.3611" fill="#005A8C"/>
<path d="M287.417 159.14H229.334V80.5566H287.417V95.8067H248.25V110.446H284.139V125.668H248.25V143.918H287.417V159.14Z" fill="#005A8C"/>
<path d="M139.889 144.945H97.3057V159.14H139.889V144.945Z" fill="#EF8200"/>
<path d="M196.611 80.5566C196.611 80.5566 175.611 106.862 172.555 110.334V80.5566H154.694V159.168H172.555V124.446C175.694 128.196 197.222 159.14 197.222 159.14H222.222C222.222 159.14 189.083 118.39 187.889 117.084L220.222 80.5566H196.611Z" fill="#005A8C"/>
<path d="M443.501 119.639C443.501 143.889 456.334 160.722 480.667 160.722C505.001 160.722 517.806 143.528 517.806 119.639C517.806 95.75 504.473 79 480.556 79C456.64 79 443.39 95.4445 443.39 119.639M462.362 119.639C462.362 107.722 467.667 95.5278 480.556 95.5278C493.445 95.5278 498.779 107.75 498.779 119.639C498.779 131.528 493.89 144.167 480.556 144.167C467.223 144.167 462.362 131.861 462.362 119.639Z" fill="#005A8C"/>
<path d="M337.306 111.36C328.722 109.082 320.639 107.694 320.472 102.166C320.444 101.406 320.587 100.65 320.89 99.9532C321.193 99.2561 321.648 98.6359 322.222 98.138C325.25 95.3603 332.139 94.4436 337.583 94.8603C344.509 95.1521 351.259 97.1256 357.25 100.61L361.111 84.6102C352.018 80.9755 342.32 79.0906 332.528 79.0547C312.806 79.2491 300.639 88.9436 300.639 104.36C300.639 119.777 315.611 124.11 328.167 127.721C336.333 129.999 344.5 131.221 344.5 137.305C344.5 143.388 334.639 145.638 328 145.638C319.797 145.514 311.792 143.099 304.889 138.666L299.806 154.499C311.139 158.944 318 160.86 328.945 160.86C340.917 160.86 350.778 157.555 356.722 151.555C358.878 149.397 360.576 146.825 361.712 143.994C362.848 141.164 363.4 138.132 363.333 135.083C363.333 119.082 349.278 114.638 337.333 111.555" fill="#005A8C"/>
<path d="M408.611 111.36C400.028 109.082 391.944 107.693 391.722 102.165C391.702 101.412 391.843 100.663 392.135 99.9689C392.427 99.2745 392.864 98.6502 393.416 98.1376C396.5 95.3598 403.361 94.4432 408.778 94.8598C415.71 95.1604 422.467 97.1332 428.472 100.61L432.305 84.6376C423.213 80.999 413.515 79.114 403.722 79.082C384.027 79.2765 371.833 88.9709 371.833 104.388C371.833 119.804 386.805 124.138 399.361 127.749C407.528 130.027 415.694 131.249 415.694 137.332C415.694 143.415 405.833 145.665 399.194 145.665C390.991 145.544 382.985 143.129 376.083 138.693L370.972 154.527C382.277 158.971 389.166 160.888 400.139 160.888C412.055 160.888 421.972 157.582 427.916 151.582C430.058 149.415 431.745 146.841 432.875 144.012C434.006 141.183 434.558 138.156 434.5 135.11C434.5 119.11 420.389 114.665 408.5 111.582" fill="#005A8C"/>
<path d="M123.806 136.721C130.062 136.862 136.272 135.629 142 133.11L136.583 120.415C133.763 122.132 130.524 123.035 127.222 123.027C118 123.027 110.389 118.443 110.389 107.943C110.389 97.4432 118 92.8599 127.222 92.8599C130.516 92.8514 133.751 93.7345 136.583 95.4155L142 82.7488C136.271 80.2294 130.064 78.9786 123.806 79.0821C105 79.0821 93.0557 89.8877 93.0557 107.915C93.0557 125.943 105 136.693 123.806 136.693" fill="#005A8C"/>
</svg>
